<svg xmlns="http://www.w3.org/2000/svg" width="227" height="161" viewBox="-0.5 -0.5 227 161">
  <defs>
    <marker id="arrowhead" markerWidth="10" markerHeight="7" 
            refX="9" refY="3.5" orient="auto" markerUnits="strokeWidth">
      <polygon points="0 0, 10 3.5, 0 7" fill="black" />
    </marker>
  </defs>

  <!-- Node rectangles and labels -->
  <rect x="0" y="0" width="226" height="160" fill="white" stroke="black" stroke-width="1" shape-rendering="crispEdges" />
  <text x="113" y="12" text-anchor="middle" dominant-baseline="middle" font-family="Arial" font-size="12">Request flow</text>
  <rect x="16" y="40" width="31" height="24" fill="white" stroke="black" stroke-width="1" shape-rendering="crispEdges" />
  <text x="31.5" y="52" text-anchor="middle" dominant-baseline="middle" font-family="Arial" font-size="12">UI</text>
  <rect x="158" y="40" width="52" height="24" fill="white" stroke="black" stroke-width="1" shape-rendering="crispEdges" />
  <text x="184" y="52" text-anchor="middle" dominant-baseline="middle" font-family="Arial" font-size="12">API</text>
  <rect x="16" y="80" width="31" height="24" fill="white" stroke="black" stroke-width="1" shape-rendering="crispEdges" />
  <text x="31.5" y="92" text-anchor="middle" dominant-baseline="middle" font-family="Arial" font-size="12">Page</text>
  <rect x="158" y="80" width="52" height="24" fill="white" stroke="black" stroke-width="1" shape-rendering="crispEdges" />
  <text x="184" y="92" text-anchor="middle" dominant-baseline="middle" font-family="Arial" font-size="12">Service</text>
  <rect x="16" y="120" width="31" height="24" fill="white" stroke="black" stroke-width="1" shape-rendering="crispEdges" />
  <text x="31.5" y="132" text-anchor="middle" dominant-baseline="middle" font-family="Arial" font-size="12">DB</text>
  <rect x="158" y="120" width="52" height="24" fill="white" stroke="black" stroke-width="1" shape-rendering="crispEdges" />
  <text x="184" y="132" text-anchor="middle" dominant-baseline="middle" font-family="Arial" font-size="12">Log</text>

  <!-- Arrows -->
  <polyline points="158,52 102.5,52 102.5,132 47,132" fill="none" stroke="black" stroke-width="1" shape-rendering="crispEdges" marker-end="url(#arrowhead)" />
  <rect x="61" y="83" width="83" height="18" fill="white" />
  <text x="102.5" y="92" text-anchor="middle" dominant-baseline="middle" font-family="Arial" font-size="12">lookup user</text>
</svg>