<svg xmlns="http://www.w3.org/2000/svg" width="151" height="120">
  <defs>
    <marker id="arrowhead" markerWidth="10" markerHeight="7" 
            refX="9" refY="3.5" orient="auto" markerUnits="strokeWidth">
      <polygon points="0 0, 10 3.5, 0 7" fill="black" />
    </marker>
  </defs>

  <!-- Node rectangles and labels -->
  <rect x="0" y="0" width="56" height="120" fill="white" stroke="black" stroke-width="1" />
  <text x="28" y="12" text-anchor="middle" dominant-baseline="middle" font-family="Arial" font-size="12">Web</text>
  <rect x="16" y="40" width="24" height="24" fill="white" stroke="black" stroke-width="1" />
  <text x="28" y="52" text-anchor="middle" dominant-baseline="middle" font-family="Arial" font-size="12">UI</text>
  <rect x="16" y="80" width="24" height="24" fill="white" stroke="black" stroke-width="1" />
  <text x="28" y="92" text-anchor="middle" dominant-baseline="middle" font-family="Arial" font-size="12">BFF</text>
  <rect x="88" y="0" width="63" height="120" fill="white" stroke="black" stroke-width="1" />
  <text x="119.5" y="12" text-anchor="middle" dominant-baseline="middle" font-family="Arial" font-size="12">Core</text>
  <rect x="104" y="40" width="31" height="24" fill="white" stroke="black" stroke-width="1" />
  <text x="119.5" y="52" text-anchor="middle" dominant-baseline="middle" font-family="Arial" font-size="12">Auth</text>
  <rect x="104" y="80" width="31" height="24" fill="white" stroke="black" stroke-width="1" />
  <text x="119.5" y="92" text-anchor="middle" dominant-baseline="middle" font-family="Arial" font-size="12">Data</text>

  <!-- Arrows -->
  <polyline points="40,52 68,52 68,92 104,92" fill="none" stroke="black" stroke-width="1" marker-end="url(#arrowhead)" />
  <polyline points="40,92 76,92 76,52 104,52" fill="none" stroke="black" stroke-width="1" marker-end="url(#arrowhead)" />
</svg>