<svg xmlns="http://www.w3.org/2000/svg" width="322" height="113" viewBox="-0.5 -0.5 322 113">
  <defs>
    <marker id="arrowhead" markerWidth="10" markerHeight="7" 
            refX="9" refY="3.5" orient="auto" markerUnits="strokeWidth">
      <polygon points="0 0, 10 3.5, 0 7" fill="black" />
    </marker>
  </defs>

  <!-- Node rectangles and labels -->
  <rect x="0" y="0" width="321" height="112" fill="white" stroke="black" stroke-width="1" shape-rendering="crispEdges" />
  <rect x="8" y="8" width="112" height="96" fill="white" stroke="black" stroke-width="1" shape-rendering="crispEdges" />
  <text x="64" y="20" text-anchor="middle" dominant-baseline="middle" font-family="Arial" font-size="12">Frontend</text>
  <rect x="16" y="40" width="96" height="24" fill="white" stroke="black" stroke-width="1" shape-rendering="crispEdges" />
  <text x="64" y="52" text-anchor="middle" dominant-baseline="middle" font-family="Arial" font-size="12">React App</text>
  <rect x="16" y="72" width="96" height="24" fill="white" stroke="black" stroke-width="1" shape-rendering="crispEdges" />
  <text x="64" y="84" text-anchor="middle" dominant-baseline="middle" font-family="Arial" font-size="12">Static Assets</text>
  <rect x="128" y="8" width="117" height="96" fill="white" stroke="black" stroke-width="1" shape-rendering="crispEdges" />
  <text x="186.5" y="20" text-anchor="middle" dominant-baseline="middle" font-family="Arial" font-size="12">Backend Services</text>
  <rect x="136" y="40" width="101" height="24" fill="white" stroke="black" stroke-width="1" shape-rendering="crispEdges" />
  <text x="186.5" y="52" text-anchor="middle" dominant-baseline="middle" font-family="Arial" font-size="12">REST API</text>
  <rect x="136" y="72" width="101" height="24" fill="white" stroke="black" stroke-width="1" shape-rendering="crispEdges" />
  <text x="186.5" y="84" text-anchor="middle" dominant-baseline="middle" font-family="Arial" font-size="12">Auth Service</text>
  <rect x="253" y="8" width="60" height="96" fill="white" stroke="black" stroke-width="1" shape-rendering="crispEdges" />
  <text x="283" y="56" text-anchor="middle" dominant-baseline="middle" font-family="Arial" font-size="12">Database</text>

  <!-- Arrows -->
  <line x1="112" y1="52" x2="136" y2="52" stroke="black" stroke-width="1" shape-rendering="crispEdges" marker-end="url(#arrowhead)" />
  <line x1="237" y1="52" x2="253" y2="56" stroke="black" stroke-width="1" marker-end="url(#arrowhead)" />
  <line x1="237" y1="84" x2="253" y2="56" stroke="black" stroke-width="1" marker-end="url(#arrowhead)" />
</svg>