<svg xmlns="http://www.w3.org/2000/svg" width="324" height="96">
  <defs>
    <marker id="arrowhead" markerWidth="10" markerHeight="7" 
            refX="9" refY="3.5" orient="auto" markerUnits="strokeWidth">
      <polygon points="0 0, 10 3.5, 0 7" fill="black" />
    </marker>
  </defs>

  <!-- Node rectangles and labels -->
  <rect x="0" y="0" width="324" height="96" fill="white" stroke="black" stroke-width="1" />
  <rect x="8" y="8" width="112" height="80" fill="white" stroke="black" stroke-width="1" />
  <text x="64" y="48" text-anchor="middle" dominant-baseline="middle" font-family="Arial" font-size="12">Frontend</text>
  <rect x="16" y="16" width="96" height="24" fill="white" stroke="black" stroke-width="1" />
  <text x="64" y="28" text-anchor="middle" dominant-baseline="middle" font-family="Arial" font-size="12">React App</text>
  <rect x="16" y="56" width="96" height="24" fill="white" stroke="black" stroke-width="1" />
  <text x="64" y="68" text-anchor="middle" dominant-baseline="middle" font-family="Arial" font-size="12">Static Assets</text>
  <rect x="136" y="8" width="104" height="80" fill="white" stroke="black" stroke-width="1" />
  <text x="188" y="48" text-anchor="middle" dominant-baseline="middle" font-family="Arial" font-size="12">Backend Services</text>
  <rect x="144" y="16" width="88" height="24" fill="white" stroke="black" stroke-width="1" />
  <text x="188" y="28" text-anchor="middle" dominant-baseline="middle" font-family="Arial" font-size="12">REST API</text>
  <rect x="144" y="56" width="88" height="24" fill="white" stroke="black" stroke-width="1" />
  <text x="188" y="68" text-anchor="middle" dominant-baseline="middle" font-family="Arial" font-size="12">Auth Service</text>
  <rect x="256" y="8" width="60" height="80" fill="white" stroke="black" stroke-width="1" />
  <text x="286" y="48" text-anchor="middle" dominant-baseline="middle" font-family="Arial" font-size="12">Database</text>

  <!-- Arrows -->
  <line x1="112" y1="28" x2="144" y2="28" stroke="black" stroke-width="1" marker-end="url(#arrowhead)" />
  <line x1="232" y1="28" x2="256" y2="48" stroke="black" stroke-width="1" marker-end="url(#arrowhead)" />
  <line x1="232" y1="68" x2="256" y2="48" stroke="black" stroke-width="1" marker-end="url(#arrowhead)" />
</svg>