<svg xmlns="http://www.w3.org/2000/svg" width="186" height="177" viewBox="-0.5 -0.5 186 177">
  <defs>
    <marker id="arrowhead" markerWidth="10" markerHeight="7" 
            refX="9" refY="3.5" orient="auto" markerUnits="strokeWidth">
      <polygon points="0 0, 10 3.5, 0 7" fill="black" />
    </marker>
    <marker id="arrowhead-2563eb" markerWidth="10" markerHeight="7" 
            refX="9" refY="3.5" orient="auto" markerUnits="strokeWidth">
      <polygon points="0 0, 10 3.5, 0 7" fill="#2563eb" />
    </marker>
  </defs>

  <!-- Node rectangles and labels -->
  <rect x="0" y="0" width="52" height="24" fill="white" stroke="black" stroke-width="1" shape-rendering="crispEdges" />
  <text x="26" y="12" text-anchor="middle" dominant-baseline="middle" font-family="Arial" font-size="12">Client</text>
  <rect x="66" y="0" width="45" height="24" fill="white" stroke="black" stroke-width="1" shape-rendering="crispEdges" />
  <text x="88.5" y="12" text-anchor="middle" dominant-baseline="middle" font-family="Arial" font-size="12">Server</text>
  <rect x="125" y="0" width="60" height="24" fill="white" stroke="black" stroke-width="1" shape-rendering="crispEdges" />
  <text x="155" y="12" text-anchor="middle" dominant-baseline="middle" font-family="Arial" font-size="12">Database</text>
  <rect x="0" y="38" width="52" height="24" fill="white" stroke="black" stroke-width="1" shape-rendering="crispEdges" />
  <text x="26" y="50" text-anchor="middle" dominant-baseline="middle" font-family="Arial" font-size="12">login()</text>
  <rect x="66" y="76" width="45" height="24" fill="white" stroke="black" stroke-width="1" shape-rendering="crispEdges" />
  <text x="88.5" y="88" text-anchor="middle" dominant-baseline="middle" font-family="Arial" font-size="12">SELECT</text>
  <rect x="125" y="114" width="60" height="24" fill="white" stroke="black" stroke-width="1" shape-rendering="crispEdges" />
  <text x="155" y="126" text-anchor="middle" dominant-baseline="middle" font-family="Arial" font-size="12">rows</text>
  <rect x="66" y="152" width="45" height="24" fill="white" stroke="black" stroke-width="1" shape-rendering="crispEdges" />
  <text x="88.5" y="164" text-anchor="middle" dominant-baseline="middle" font-family="Arial" font-size="12">200 OK</text>

  <!-- Arrows -->
  <line x1="52" y1="50" x2="66" y2="50" stroke="black" stroke-width="1" shape-rendering="crispEdges" marker-end="url(#arrowhead)" />
  <line x1="111" y1="88" x2="125" y2="88" stroke="black" stroke-width="1" shape-rendering="crispEdges" marker-end="url(#arrowhead)" />
  <line x1="125" y1="126" x2="111" y2="126" stroke="#2563eb" stroke-width="1" shape-rendering="crispEdges" marker-end="url(#arrowhead-2563eb)" />
  <line x1="66" y1="164" x2="52" y2="164" stroke="#2563eb" stroke-width="1" shape-rendering="crispEdges" marker-end="url(#arrowhead-2563eb)" />
</svg>